# xmcd
#
# Track frame offsets:
# 150
# 12347
# 23187
# 36245
# 48300
# 62072
# 76490
# 87762
# 101660
# 112730
# 124765
# 135575
# 147192
# 158442
#
# Disc length: 2280 seconds
#
#
# Revision: 0
# Processed by: cddbd v1.5.2PL0 Copyright (c) Steve Scherf et al.
# Submitted via: FreeRIP 2.945 
#
DISCID=aa08e60e
DTITLE=Luiz Gonzaga - CD 3 - Lua do Brasil - Luiz Gonzaga
DYEAR=1900
DGENRE=Forró
TTITLE0=01 - Calango da Lacraia
TTITLE1=02 - Dança Mariquinha
TTITLE2=03 - Amanhã eu vou
TTITLE3=04 - Tenho onde morar
TTITLE4=05 - O passo da rancheira
TTITLE5=06 - Galo Garnizé
TTITLE6=07 - Cortando o pano
TTITLE7=08 - Lorota boa
TTITLE8=09 - Ô de casa
TTITLE9=10 - Olha pro céu
TTITLE10=11 - Siri jogando bola
TTITLE11=12 - Conversa de barbeiro
TTITLE12=13 - Pau de sebo
TTITLE13=14 - Légua tirana
EXTD=Marco Senche\nmarco@folhadaregiao.com.br
EXTT0=
EXTT1=
EXTT2=
EXTT3=
EXTT4=
EXTT5=
EXTT6=
EXTT7=
EXTT8=
EXTT9=
EXTT10=
EXTT11=
EXTT12=
EXTT13=
PLAYORDER=
